<svg width="24" height="24" viewBox="0 0 24 24" fill="none" xmlns="http://www.w3.org/2000/svg">
<path d="M6 11C3.79086 11 2 9.20914 2 7C2 4.79086 3.79086 3 6 3L18 3C20.2091 3 22 4.79086 22 7C22 9.20914 20.2091 11 18 11M18 7L18 19C18 20.1046 17.1046 21 16 21H8C6.89543 21 6 20.1046 6 19V7L18 7Z" stroke="#4A4E5A" stroke-width="1.5" stroke-linejoin="round"/>
<path d="M14 15L12.7071 16.2929C12.3166 16.6834 11.6834 16.6834 11.2929 16.2929L10 15M12 11V16" stroke="#4A4E5A" stroke-width="1.5" stroke-linecap="round"/>
</svg>
